<svg xmlns="http://www.w3.org/2000/svg" viewBox="0 0 200 80" width="400" height="160">
  <!-- Background -->
  <rect width="200" height="80" fill="white"/>

  <!-- Tooth shape -->
  <g transform="translate(8, 6)">
    <!-- Main tooth body -->
    <path d="
      M18,8
      C18,4 22,2 26,2
      C30,2 32,5 34,5
      C36,5 38,2 42,2
      C46,2 50,4 50,8
      L50,30
      C50,36 47,44 44,50
      C42,54 40,58 38,58
      C36,58 35,54 34,48
      C33,42 33,38 34,34
      L34,34
      C33,38 33,42 34,48
      C33,42 33,38 34,34
      M34,34
      C33,38 33,42 34,48
      C33,54 32,58 30,58
      C28,58 26,54 24,50
      C21,44 18,36 18,30
      Z
    " fill="#222" stroke="none"/>

    <!-- Cleaner tooth redraw -->
    <path d="
      M16,9 C16,4 20,1 25,1 C29,1 31,4 34,4 C37,4 39,1 43,1 C48,1 52,4 52,9
      L52,28 C52,36 49,46 46,52 C44,56 42,60 39,60 C37,60 36,55 35,48 C34.5,44 34.5,40 34,36
      C33.5,40 33.5,44 33,48 C32,55 31,60 29,60 C26,60 24,56 22,52 C19,46 16,36 16,28 Z
    " fill="#1a1a1a"/>

    <!-- Eyes -->
    <circle cx="27" cy="22" r="3.5" fill="white"/>
    <circle cx="41" cy="22" r="3.5" fill="white"/>
    <circle cx="28" cy="23" r="1.8" fill="#1a1a1a"/>
    <circle cx="42" cy="23" r="1.8" fill="#1a1a1a"/>

    <!-- Smile -->
    <path d="M26,33 Q34,39 42,33" stroke="white" stroke-width="2.2" fill="none" stroke-linecap="round"/>
  </g>

  <!-- Text -->
  <text x="70" y="28" font-family="Georgia, serif" font-size="13" font-weight="700" fill="#1a1a1a" letter-spacing="0.5">Especialidades</text>
  <text x="70" y="44" font-family="Georgia, serif" font-size="13" font-weight="700" fill="#1a1a1a" letter-spacing="0.5">Odontológicas</text>
  <text x="70" y="58" font-family="Georgia, serif" font-size="10" font-weight="400" fill="#555" letter-spacing="0.3">Grupo Dental, S.L.</text>
</svg>
